<?xml version="1.0" encoding="UTF-8" standalone="no"?>
<svg
   xmlns:dc="http://purl.org/dc/elements/1.1/"
   xmlns:cc="http://creativecommons.org/ns#"
   xmlns:rdf="http://www.w3.org/1999/02/22-rdf-syntax-ns#"
   xmlns:svg="http://www.w3.org/2000/svg"
   xmlns="http://www.w3.org/2000/svg"
   xmlns:sodipodi="http://sodipodi.sourceforge.net/DTD/sodipodi-0.dtd"
   xmlns:inkscape="http://www.inkscape.org/namespaces/inkscape"
   viewBox="52 42 700 700"
   version="1.1"
   id="svg12"
   sodipodi:docname="gmail-logo-2020.svg"
   width="700"
   height="700"
   inkscape:export-filename="G:\Users\suitedoalex\sites\gmail-logo-0.png"
   inkscape:export-xdpi="561.73712"
   inkscape:export-ydpi="561.73712"
   inkscape:version="0.92.4 (5da689c313, 2019-01-14)">
  <metadata
     id="metadata18">
    <rdf:RDF>
      <cc:Work
         rdf:about="">
        <dc:format>image/svg+xml</dc:format>
        <dc:type
           rdf:resource="http://purl.org/dc/dcmitype/StillImage" />
        <dc:title></dc:title>
      </cc:Work>
    </rdf:RDF>
  </metadata>
  <defs
     id="defs16" />
  <sodipodi:namedview
     pagecolor="#ffffff"
     bordercolor="#666666"
     borderopacity="1"
     objecttolerance="10"
     gridtolerance="10"
     guidetolerance="10"
     inkscape:pageopacity="0"
     inkscape:pageshadow="2"
     inkscape:window-width="1600"
     inkscape:window-height="837"
     id="namedview14"
     showgrid="false"
     inkscape:zoom="0.4469697"
     inkscape:cx="512.09896"
     inkscape:cy="141.55211"
     inkscape:window-x="-8"
     inkscape:window-y="-8"
     inkscape:window-maximized="1"
     inkscape:current-layer="svg12" />
  <path
     d="m 130.84383,457.08348 h 27.60407 v -67.03842 l -39.43437,-29.57588 v 84.78394 c 0,6.54614 5.30393,11.83036 11.8303,11.83036"
     id="path2"
     inkscape:connector-curvature="0"
     style="fill:#4285f4;stroke-width:1.97171855"
     inkscape:export-filename="G:\Users\suitedoalex\sites\gmail-logo-5.png"
     inkscape:export-xdpi="118.7336"
     inkscape:export-ydpi="118.7336" />
  <path
     d="m 253.09037,457.08348 h 27.60404 c 6.54613,0 11.83033,-5.30401 11.83033,-11.83036 v -84.78394 l -39.43437,29.57588"
     id="path4"
     inkscape:connector-curvature="0"
     style="fill:#34a853;stroke-width:1.97171855"
     inkscape:export-filename="G:\Users\suitedoalex\sites\gmail-logo-5.png"
     inkscape:export-xdpi="118.7336"
     inkscape:export-ydpi="118.7336" />
  <path
     d="m 253.09037,338.78043 v 51.26463 l 39.43437,-29.57588 v -15.77364 c 0,-14.63009 -16.70045,-22.97054 -28.39276,-14.19634"
     id="path6"
     inkscape:connector-curvature="0"
     style="fill:#fbbc04;stroke-width:1.97171855"
     inkscape:export-filename="G:\Users\suitedoalex\sites\gmail-logo-5.png"
     inkscape:export-xdpi="118.7336"
     inkscape:export-ydpi="118.7336" />
  <path
     d="m 158.4479,390.04506 v -51.26463 l 47.32123,35.49085 47.32124,-35.49085 v 51.26463 l -47.32124,35.49092"
     id="path8"
     inkscape:connector-curvature="0"
     style="fill:#ea4335;stroke-width:1.97171855"
     inkscape:export-filename="G:\Users\suitedoalex\sites\gmail-logo-5.png"
     inkscape:export-xdpi="118.7336"
     inkscape:export-ydpi="118.7336" />
  <path
     d="m 119.01353,344.69554 v 15.77364 l 39.43437,29.57588 v -51.26463 l -11.04162,-8.28123 c -11.71202,-8.7742 -28.39275,-0.43375 -28.39275,14.19634"
     id="path10"
     inkscape:connector-curvature="0"
     style="fill:#c5221f;stroke-width:1.97171855"
     inkscape:export-filename="G:\Users\suitedoalex\sites\gmail-logo-5.png"
     inkscape:export-xdpi="118.7336"
     inkscape:export-ydpi="118.7336" />
  <path
     inkscape:connector-curvature="0"
     d="m 451.9066,360.1893 c -2.62664,2.67268 -5.2072,5.29931 -7.69559,7.83378 -10.87522,-10.18398 -23.45545,-13.17927 -37.27988,-8.11028 -13.50186,4.93072 -21.05922,15.16081 -22.67206,29.49206 -1.29029,11.33602 1.52068,21.4279 9.4006,29.95296 14.05484,15.2529 41.15073,14.2852 52.80932,-1.93542 2.90313,-4.00905 4.46991,-8.52506 5.39153,-13.31756 0.41474,-2.11968 -0.0922,-2.8109 -2.35014,-2.8109 -9.12413,0.0921 -18.29434,0.0462 -27.41845,0.0462 h -2.53449 c 0,-3.17963 -0.0922,-7.33365 0.0922,-10.2829 0,0 1.38244,0.007 2.16584,0.007 10.23007,-0.0923 20.41407,-0.0462 30.64413,-0.0462 2.67274,0 5.39154,0.0922 8.06426,-0.0462 1.65893,-0.0922 2.30408,0.41478 2.44231,2.11982 2.67274,26.589 -14.56172,43.63911 -34.51498,46.81867 -14.74606,2.3502 -28.29399,-0.27643 -39.81436,-10.36824 -11.61252,-10.13793 -16.45107,-23.04077 -15.94418,-38.3398 0.96771,-27.51066 27.09589,-51.05824 60.13627,-42.25669 6.9583,1.84332 13.13321,5.11512 18.24824,10.27621 0.32257,0.32255 0.59906,0.69122 0.82947,0.96771 z"
     id="path8-4"
     style="stroke-width:0.4608143;fill:#606268;fill-opacity:1"
     sodipodi:nodetypes="ccccccccscccscccccccc"
     inkscape:export-filename="G:\Users\suitedoalex\sites\gmail-logo-5.png"
     inkscape:export-xdpi="118.7336"
     inkscape:export-ydpi="118.7336" />
  <path
     inkscape:connector-curvature="0"
     d="m 568.81518,438.61984 h -11.01345 v -2.71879 c 0,-11.15175 0.0922,-22.25732 -0.0461,-33.40902 -0.0461,-3.17963 -0.55297,-6.45141 -1.38244,-9.49276 -1.01379,-3.68658 -3.77867,-5.85237 -7.4652,-6.82009 -9.72318,-2.62663 -18.89338,3.68658 -20.73664,14.33131 -0.27649,1.65893 -0.41472,3.36397 -0.41472,5.02289 -0.0462,9.99964 0,19.95324 0,29.95296 v 3.08739 h -11.01347 v -2.81089 c 0,-11.38221 0.0922,-22.71816 -0.0461,-34.1003 -0.0461,-2.99529 -0.69123,-6.08276 -1.47461,-9.03193 -0.7373,-2.90313 -2.90313,-4.83856 -5.71409,-5.89843 -9.07806,-3.5483 -18.34041,1.01376 -21.42787,10.82914 -0.87555,2.81097 -1.19812,5.85231 -1.19812,8.8476 -0.13824,10.64481 -0.0461,21.33567 -0.0461,32.16481 h -10.9213 v -60.73527 h 10.32224 v 8.0643 c 0.18433,0.13814 0.36865,0.27642 0.55298,0.41464 4.93071,-6.77397 11.38211,-10.64474 19.76893,-10.5987 8.47899,0.0462 14.83822,3.73256 18.98555,11.70469 0.69122,-0.92159 1.19811,-1.52063 1.65893,-2.1658 7.74168,-10.55264 24.37708,-13.04112 34.05418,-4.97684 4.83855,4.05518 7.00437,9.58501 7.23478,15.62158 0.36865,8.57118 0.23041,17.1884 0.27649,25.80569 0.0921,5.52976 0.0461,11.15168 0.0461,16.91182 z"
     id="path10-6"
     style="stroke-width:0.4608143;fill:#606268;fill-opacity:1"
     sodipodi:nodetypes="ccscccccsccsccccccccccccccccccc"
     inkscape:export-filename="G:\Users\suitedoalex\sites\gmail-logo-5.png"
     inkscape:export-xdpi="118.7336"
     inkscape:export-ydpi="118.7336" />
  <path
     inkscape:connector-curvature="0"
     d="m 621.99316,402.72242 c 1.2442,-6.45143 -2.02758,-12.3959 -8.38682,-15.66769 -7.51127,-3.82473 -15.85201,-1.61287 -23.04071,6.26708 -3.13355,-1.93541 -6.26708,-3.91695 -9.58495,-5.99058 2.48841,-3.87085 5.66803,-6.77398 9.63103,-8.52506 10.41439,-4.60817 20.92096,-4.79243 31.01279,0.73726 7.60344,4.14734 10.96739,11.24392 11.10563,19.67681 0.18433,12.81061 0.0461,25.62129 0.0461,38.4319 0,0.23038 0.004,-0.0144 0.004,0.82942 h -10.51004 v -8.11027 c -0.18433,-0.0922 -0.41474,-0.18433 -0.59906,-0.23038 -0.46082,0.50681 -0.96771,0.96764 -1.38244,1.52063 -9.67711,13.5019 -30.18335,10.55265 -37.92502,-0.2765 -6.72789,-9.40059 -3.963,-23.1328 6.26707,-28.43217 10.04575,-5.20722 20.55232,-4.88467 31.01281,-1.15211 0.78338,0.27649 1.4746,0.59904 2.35015,0.92166 z m -15.57552,5.16117 c -1.15203,0.1382 -3.04137,0.32254 -4.93072,0.73725 -1.47461,0.32255 -2.94922,0.87554 -4.33166,1.52071 -4.79246,2.35013 -7.32694,6.45135 -6.86612,10.92131 0.41473,4.2395 4.10125,8.06422 9.03195,9.35448 9.9536,2.62663 21.52003,-5.39154 22.85639,-15.75986 0.23042,-1.6128 -0.18432,-2.58051 -1.56676,-3.41001 -4.10125,-2.58058 -8.70939,-3.13351 -14.19308,-3.36388 z"
     id="path12"
     style="stroke-width:0.4608143;fill:#606268;fill-opacity:1"
     sodipodi:nodetypes="cccccccscccccccccccccccccc"
     inkscape:export-filename="G:\Users\suitedoalex\sites\gmail-logo-5.png"
     inkscape:export-xdpi="118.7336"
     inkscape:export-ydpi="118.7336" />
  <path
     inkscape:connector-curvature="0"
     d="m 674.34167,349.26792 h 10.6448 v 89.25977 h -10.6448 z"
     id="path14"
     style="stroke-width:0.4608143;fill:#606268;fill-opacity:1"
     sodipodi:nodetypes="ccccc"
     inkscape:export-filename="G:\Users\suitedoalex\sites\gmail-logo-5.png"
     inkscape:export-xdpi="118.7336"
     inkscape:export-ydpi="118.7336" />
  <path
     inkscape:connector-curvature="0"
     d="m 658.30532,438.71201 h -9.4006 c -0.36866,0 -0.7855,0.0283 -1.2924,-0.0179 -0.0461,-0.73726 -0.09,-1.50292 -0.09,-2.19406 0,-18.75515 0.0461,-37.46426 -0.0461,-56.21941 0,-2.02759 0.0706,-2.73086 0.0706,-2.73086 2.98195,0 7.90142,0.0124 10.75847,0.0124 v 61.15005 z"
     id="path16"
     style="stroke-width:0.4608143;fill:#606268;fill-opacity:1"
     sodipodi:nodetypes="cscsccccc"
     inkscape:export-filename="G:\Users\suitedoalex\sites\gmail-logo-5.png"
     inkscape:export-xdpi="118.7336"
     inkscape:export-ydpi="118.7336" />
  <path
     inkscape:connector-curvature="0"
     d="m 645.12604,355.9498 c 0,-4.51601 3.54827,-7.87997 8.15641,-7.83385 4.28557,0.0462 7.60343,3.50218 7.64952,7.8799 0.0461,4.56205 -3.45612,7.97205 -8.01817,7.97205 -4.46991,-0.0462 -7.83385,-3.50217 -7.78776,-8.0181 z"
     id="path18"
     style="stroke-width:0.4608143;fill:#606268;fill-opacity:1"
     sodipodi:nodetypes="ccccc"
     inkscape:export-filename="G:\Users\suitedoalex\sites\gmail-logo-5.png"
     inkscape:export-xdpi="118.7336"
     inkscape:export-ydpi="118.7336" />
</svg>
